<svg width="14" height="9" viewBox="0 0 14 9" fill="none" xmlns="http://www.w3.org/2000/svg">
<path fill-rule="evenodd" clip-rule="evenodd" d="M7.09096 8.14297C10.772 8.14297 13.757 4.18097 13.757 4.18097C13.757 4.18097 10.772 0.219971 7.08996 0.219971C3.40896 0.219971 0.423958 4.18197 0.423958 4.18197C0.423958 4.18197 3.40896 8.14397 7.08996 8.14397L7.09096 8.14297ZM11.169 5.38997C11.621 5.0172 12.0467 4.61357 12.443 4.18197C12.133 3.84397 11.697 3.40797 11.169 2.97397C10.028 2.03697 8.58496 1.21997 7.08896 1.21997C5.59296 1.21997 4.15096 2.03697 3.00896 2.97397C2.48096 3.40797 2.04596 3.84397 1.73496 4.18197C2.04596 4.51997 2.48096 4.95597 3.00996 5.38997C4.15096 6.32697 5.59296 7.14397 7.08996 7.14397C8.58496 7.14397 10.028 6.32697 11.169 5.38997ZM5.82596 3.76797C5.59496 3.76797 5.38596 3.67497 5.23296 3.52497C5.08407 3.9438 5.08197 4.4008 5.227 4.82098C5.37203 5.24116 5.65558 5.59956 6.03111 5.83737C6.40665 6.07519 6.85187 6.17829 7.29372 6.12976C7.73557 6.08124 8.1478 5.88396 8.46277 5.5703C8.77773 5.25665 8.97673 4.84525 9.02711 4.40361C9.07749 3.96197 8.97625 3.51632 8.74 3.13979C8.50376 2.76326 8.14655 2.47822 7.72698 2.33143C7.30741 2.18464 6.85041 2.18484 6.43096 2.33197C6.54705 2.45072 6.62553 2.60108 6.65657 2.76423C6.6876 2.92737 6.66982 3.09604 6.60545 3.24913C6.54108 3.40221 6.43297 3.53291 6.29468 3.62484C6.15638 3.71678 5.99403 3.76587 5.82796 3.76597L5.82596 3.76797Z" fill="#111111"/>
</svg>
